<?xml version="1.0" encoding="UTF-8" standalone="no"?>
<svg width="32px" height="32px" viewBox="0 0 32 32" version="1.1" xmlns="http://www.w3.org/2000/svg" xmlns:xlink="http://www.w3.org/1999/xlink" xmlns:sketch="http://www.bohemiancoding.com/sketch/ns">
    <!-- Generator: Sketch Beta 3.2.1 (9965) - http://www.bohemiancoding.com/sketch -->
    <title>kino</title>
    <desc>Created with Sketch Beta.</desc>
    <defs></defs>
    <g id="Page-1" stroke="none" stroke-width="1" fill="none" fill-rule="evenodd" sketch:type="MSPage">
        <g id="empty" sketch:type="MSArtboardGroup" transform="translate(-437.000000, -1891.000000)" fill="#C0C0C0">
            <g id="movie" sketch:type="MSLayerGroup" transform="translate(313.000000, 1818.000000)">
                <g id="cover" sketch:type="MSShapeGroup">
                    <path d="M140,105 C148.836556,105 156,97.836556 156,89 C156,80.163444 148.836556,73 140,73 C131.163444,73 124,80.163444 124,89 C124,97.836556 131.163444,105 140,105 Z M133.684211,86.4736842 C135.777079,86.4736842 137.473684,84.7770791 137.473684,82.6842105 C137.473684,80.591342 135.777079,78.8947368 133.684211,78.8947368 C131.591342,78.8947368 129.894737,80.591342 129.894737,82.6842105 C129.894737,84.7770791 131.591342,86.4736842 133.684211,86.4736842 Z M146.315789,86.4736842 C148.408658,86.4736842 150.105263,84.7770791 150.105263,82.6842105 C150.105263,80.591342 148.408658,78.8947368 146.315789,78.8947368 C144.222921,78.8947368 142.526316,80.591342 142.526316,82.6842105 C142.526316,84.7770791 144.222921,86.4736842 146.315789,86.4736842 Z M146.315789,99.1052632 C148.408658,99.1052632 150.105263,97.408658 150.105263,95.3157895 C150.105263,93.2229209 148.408658,91.5263158 146.315789,91.5263158 C144.222921,91.5263158 142.526316,93.2229209 142.526316,95.3157895 C142.526316,97.408658 144.222921,99.1052632 146.315789,99.1052632 Z M133.684211,99.1052632 C135.777079,99.1052632 137.473684,97.408658 137.473684,95.3157895 C137.473684,93.2229209 135.777079,91.5263158 133.684211,91.5263158 C131.591342,91.5263158 129.894737,93.2229209 129.894737,95.3157895 C129.894737,97.408658 131.591342,99.1052632 133.684211,99.1052632 Z M140,91.5263158 C141.395246,91.5263158 142.526316,90.3952457 142.526316,89 C142.526316,87.6047543 141.395246,86.4736842 140,86.4736842 C138.604754,86.4736842 137.473684,87.6047543 137.473684,89 C137.473684,90.3952457 138.604754,91.5263158 140,91.5263158 Z" id="kino"></path>
                </g>
            </g>
        </g>
    </g>
</svg>